<svg width="226" height="226" viewBox="0 0 226 226" fill="none" xmlns="http://www.w3.org/2000/svg">
<path d="M171.693 52.5831C156.654 30.8806 126.714 24.5219 105.19 38.2069L67.2481 62.5358C56.9003 69.0327 49.7257 79.6766 47.6562 91.7029C45.8625 101.794 47.3802 112.161 52.2092 121.146C48.8979 126.123 46.6904 131.652 45.7246 137.458C43.517 149.761 46.4144 162.478 53.5889 172.569C68.7658 194.271 98.5677 200.63 120.091 186.945L158.034 162.754C168.381 156.257 175.556 145.614 177.626 133.587C179.419 123.496 177.901 113.129 173.072 104.144C176.384 99.1674 178.591 93.6381 179.557 87.8324C181.903 75.3914 179.005 62.674 171.693 52.5831Z" fill="url(#paint0_linear_1_6)"/>
<path d="M101.465 174.642C89.1857 177.822 76.3543 172.984 69.1798 162.616C64.7647 156.534 63.109 148.931 64.3508 141.467C64.6267 140.222 64.9026 139.117 65.1786 137.872L65.8684 135.661L67.8001 137.043C72.3531 140.361 77.3201 142.849 82.701 144.508L84.0807 144.922L83.9427 146.305C83.8048 148.24 84.3567 150.313 85.4604 151.972C87.668 155.152 91.5312 156.672 95.2564 155.704C96.0843 155.428 96.9121 155.152 97.6019 154.737L135.406 130.546C137.338 129.302 138.58 127.505 138.993 125.293C139.407 123.082 138.855 120.732 137.614 118.935C135.406 115.755 131.543 114.373 127.818 115.341C126.99 115.617 126.162 115.893 125.472 116.308L110.985 125.57C108.64 127.09 106.018 128.196 103.259 128.887C90.9793 132.067 78.1479 127.229 70.9734 116.861C66.6963 110.779 64.9026 103.176 66.2824 95.7115C67.5241 88.5234 71.9392 82.0265 78.1479 78.156L116.09 53.9653C118.436 52.4447 121.057 51.3389 123.817 50.5095C136.096 47.3301 148.927 52.1683 156.102 62.5357C160.517 68.6179 162.173 76.2207 160.931 83.6853C160.655 84.9294 160.379 86.0352 159.965 87.2793L159.275 89.4911L157.344 88.1087C152.791 84.7912 147.824 82.303 142.443 80.6442L141.063 80.2295L141.201 78.8472C141.339 76.9119 140.787 74.8384 139.683 73.1796C137.476 70.0003 133.613 68.6179 129.887 69.5856C129.059 69.862 128.232 70.1385 127.542 70.5532L89.7376 94.7439C87.806 95.988 86.5642 97.785 86.1503 99.9967C85.7364 102.208 86.2883 104.558 87.53 106.355C89.7376 109.535 93.6008 110.917 97.326 109.949C98.1538 109.673 98.9817 109.397 99.6715 108.982L114.159 99.7203C116.504 98.1997 119.126 97.0939 121.885 96.2645C134.164 93.0851 146.996 97.9233 154.17 108.291C158.585 114.373 160.241 121.976 158.999 129.44C157.758 136.628 153.343 143.125 147.134 146.996L109.192 171.187C106.846 172.707 104.225 173.813 101.465 174.642Z" fill="white"/>
<defs>
<linearGradient id="paint0_linear_1_6" x1="112.677" y1="31" x2="112.677" y2="194.152" gradientUnits="userSpaceOnUse">
<stop stop-color="#FF3E00"/>
<stop offset="1" stop-color="#7A12F5"/>
</linearGradient>
</defs>
</svg>
